arm26_optimize_states
version=1
nRows=19
nColumns=21
inDegrees=yes

# SIMM Motion File Header:
name arm26_optimize_states
datacolumns 21
datarows 19
otherdata 1
range 0.37621437 0.46288209
endheader
time	r_shoulder_elev	r_elbow_flex	r_shoulder_elev_u	r_elbow_flex_u	TRIlong.activation	TRIlong.fiber_length	TRIlat.activation	TRIlat.fiber_length	TRImed.activation	TRImed.fiber_length	BIClong.activation	BIClong.fiber_length	BICshort.activation	BICshort.fiber_length	BRA.activation	BRA.fiber_length	DeltAnt.activation	DeltAnt.fiber_length	DeltPost.activation	DeltPost.fiber_length
      0.37621437	      6.20731585	    -13.31147022	      0.87449294	     28.44454486	      0.01028245	      0.13745414	      0.01028245	      0.06726822	      0.01028245	      0.06232679	      0.01028245	      0.14495538	      0.01028245	      0.14875885	      0.01028245	      0.08584738	      0.01028245	      0.17692773	      0.01028245	      0.11408374
      0.37919005	      6.20946675	    -13.22519831	      0.57249743	     29.53618393	      0.01027182	      0.13746721	      0.01027182	      0.06727911	      0.01027182	      0.06233769	      0.01027182	      0.14495295	      0.01027182	      0.14875719	      0.01027182	      0.08585764	      0.01027182	      0.17692607	      0.01027182	      0.11408629
      0.38177573	      6.21061885	    -13.14763083	      0.32021720	     30.45720644	      0.01026292	      0.13747857	      0.01026292	      0.06728906	      0.01026292	      0.06234766	      0.01026292	      0.14495092	      0.01026292	      0.14875563	      0.01026292	      0.08586686	      0.01026292	      0.17692551	      0.01026292	      0.11408791
      0.38436141	      6.21112864	    -13.06771053	      0.07542589	     31.35658065	      0.01025430	      0.13748994	      0.01025430	      0.06729948	      0.01025430	      0.06235809	      0.01025430	      0.14494896	      0.01025430	      0.14875397	      0.01025430	      0.08587634	      0.01025430	      0.17692506	      0.01025430	      0.11408901
      0.38791441	      6.21081925	    -12.95416154	     -0.24670565	     32.55268131	      0.01024292	      0.13750561	      0.01024292	      0.06731456	      0.01024292	      0.06237317	      0.01024292	      0.14494634	      0.01024292	      0.14875150	      0.01024292	      0.08588978	      0.01024292	      0.17692517	      0.01024292	      0.11408969
      0.39226852	      6.20892526	    -12.80934394	     -0.62003166	     33.95760299	      0.01022967	      0.13752496	      0.01022967	      0.06733427	      0.01022967	      0.06239288	      0.01022967	      0.14494324	      0.01022967	      0.14874816	      0.01022967	      0.08590687	      0.01022967	      0.17692606	      0.01022967	      0.11408908
      0.39662262	      6.20545227	    -12.65854553	     -0.97206814	     35.29995971	      0.01021714	      0.13754456	      0.01021714	      0.06735534	      0.01021714	      0.06241394	      0.01021714	      0.14494020	      0.01021714	      0.14874447	      0.01021714	      0.08592459	      0.01021714	      0.17692795	      0.01021714	      0.11408680
      0.40287141	      6.19788163	    -12.43219731	     -1.44464698	     37.12587321	      0.01020035	      0.13757326	      0.01020035	      0.06738799	      0.01020035	      0.06244656	      0.01020035	      0.14493593	      0.01020035	      0.14873851	      0.01020035	      0.08595103	      0.01020035	      0.17693227	      0.01020035	      0.11408151
      0.40945918	      6.18683924	    -12.18163771	     -1.90011778	     38.91899509	      0.01018405	      0.13760448	      0.01018405	      0.06742556	      0.01018405	      0.06248409	      0.01018405	      0.14493129	      0.01018405	      0.14873132	      0.01018405	      0.08598003	      0.01018405	      0.17693875	      0.01018405	      0.11407326
      0.41424619	      6.17700491	    -11.99238350	     -2.20502368	     40.13937854	      0.01017304	      0.13762792	      0.01017304	      0.06745494	      0.01017304	      0.06251343	      0.01017304	      0.14492777	      0.01017304	      0.14872547	      0.01017304	      0.08600175	      0.01017304	      0.17694461	      0.01017304	      0.11406595
      0.41903320	      6.16576616	    -11.79746029	     -2.48671681	     41.28707109	      0.01016269	      0.13765210	      0.01016269	      0.06748605	      0.01016269	      0.06254448	      0.01016269	      0.14492413	      0.01016269	      0.14871907	      0.01016269	      0.08602394	      0.01016269	      0.17695134	      0.01016269	      0.11405731
      0.42571323	      6.14794095	    -11.51663015	     -2.84342871	     42.77142639	      0.01014928	      0.13768721	      0.01014928	      0.06753238	      0.01014928	      0.06259069	      0.01014928	      0.14491877	      0.01014928	      0.14870922	      0.01014928	      0.08605561	      0.01014928	      0.17696209	      0.01014928	      0.11404363
      0.43085558	      6.13267856	    -11.29395719	     -3.08812539	     43.81815328	      0.01013971	      0.13771547	      0.01013971	      0.06757041	      0.01013971	      0.06262865	      0.01013971	      0.14491415	      0.01013971	      0.14870082	      0.01013971	      0.08608042	      0.01013971	      0.17697131	      0.01013971	      0.11403161
      0.43599792	      6.11622059	    -11.06610822	     -3.30895099	     44.78556510	      0.01013076	      0.13774486	      0.01013076	      0.06761046	      0.01013076	      0.06266858	      0.01013076	      0.14490925	      0.01013076	      0.14869173	      0.01013076	      0.08610556	      0.01013076	      0.17698133	      0.01013076	      0.11401884
      0.44114027	      6.09869109	    -10.83349497	     -3.50459684	     45.67047213	      0.01012238	      0.13777547	      0.01012238	      0.06765250	      0.01012238	      0.06271050	      0.01012238	      0.14490392	      0.01012238	      0.14868192	      0.01012238	      0.08613095	      0.01012238	      0.17699196	      0.01012238	      0.11400496
      0.44680009	      6.07830974	    -10.57246623	     -3.69303700	     46.55333562	      0.01011377	      0.13781065	      0.01011377	      0.06770107	      0.01011377	      0.06275890	      0.01011377	      0.14489754	      0.01011377	      0.14867027	      0.01011377	      0.08615910	      0.01011377	      0.17700446	      0.01011377	      0.11398900
      0.45245992	      6.05694294	    -10.30671458	     -3.85249903	     47.33866058	      0.01010578	      0.13784746	      0.01010578	      0.06775200	      0.01010578	      0.06280966	      0.01010578	      0.14489053	      0.01010578	      0.14865771	      0.01010578	      0.08618740	      0.01010578	      0.17701737	      0.01010578	      0.11397185
      0.45834595	      6.03384851	    -10.02591631	     -3.99000995	     48.05671563	      0.01009805	      0.13788751	      0.01009805	      0.06780740	      0.01009805	      0.06286485	      0.01009805	      0.14488253	      0.01009805	      0.14864367	      0.01009805	      0.08621689	      0.01009805	      0.17703193	      0.01009805	      0.11395395
      0.46288209	      6.01554794	     -9.80680430	     -4.07632418	     48.54132516	      0.01009249	      0.13791966	      0.01009249	      0.06785178	      0.01009249	      0.06290908	      0.01009249	      0.14487579	      0.01009249	      0.14863215	      0.01009249	      0.08623960	      0.01009249	      0.17704265	      0.01009249	      0.11393892
